# xmcd
# Copyright (c) 1998 CDDB Inc.
#
# Track frame offsets:
#	150
#	17799
#	30201
#	49094
#	70452
#	89308
#	107891
#	123185
#	138297
#	153750
#	169618
#	185637
#	200661
#	218915
#	230686
#	243353
#	256952
#
# Disc length: 3611 seconds
#
# Revision: 0
# Processed by: cddbd v1.5.2PL0 Copyright (c) Steve Scherf et al.
# Submitted via: AudioCatalyst 2.10full
#
DISCID=e70e1911
DTITLE=Irmãos Schimidt - Lembrança
DYEAR=1900
DGENRE=
TTITLE0=Mãe natureza
TTITLE1=Amor ódio e vingança
TTITLE2=Ébrio de amor
TTITLE3=Maldito seja o dinheiro
TTITLE4=Crime de amor
TTITLE5=Bailarina
TTITLE6=Copa 2002
TTITLE7=Porre de vinho
TTITLE8=Garçonete
TTITLE9=Desprezo
TTITLE10=Tango do adeus
TTITLE11=Flor de baile
TTITLE12=Cão e gato
TTITLE13=Meu drama
TTITLE14=Leão ferido
TTITLE15=Violão amigo
TTITLE16=Feitiço espanhol
EXTD=
EXTT0=
EXTT1=
EXTT2=
EXTT3=
EXTT4=
EXTT5=
EXTT6=
EXTT7=
EXTT8=
EXTT9=
EXTT10=
EXTT11=
EXTT12=
EXTT13=
EXTT14=
EXTT15=
EXTT16=
PLAYORDER=
